<?xml version="1.0" encoding="UTF-8"?>
<svg id="_レイヤー_2" data-name="レイヤー 2" xmlns="http://www.w3.org/2000/svg" viewBox="0 0 389.86 368.69">
  <defs>
    <style>
      .cls-1 {
        fill: #231815;
      }

      .cls-2 {
        fill: #208b3b;
      }

      .cls-3 {
        fill: #fff;
      }

      .cls-4 {
        fill: #248ec6;
      }

      .cls-5 {
        fill: #0a0f0f;
      }

      .cls-6 {
        fill: #cd2272;
      }

      .cls-7 {
        fill: #1b2b59;
      }

      .cls-8 {
        fill: #d1221a;
      }

      .cls-9 {
        fill: #eae33c;
      }
    </style>
  </defs>
  <g id="_レイヤー_1-2" data-name="レイヤー 1">
    <g>
      <circle class="cls-9" cx="194.93" cy="122.9" r="122.9"/>
      <circle class="cls-4" cx="123.88" cy="245.79" r="122.9"/>
      <path class="cls-2" d="M72.03,134.13c5.68,62.61,58.28,111.67,122.36,111.67,18.32,0,35.69-4.04,51.31-11.23-5.68-62.61-58.28-111.67-122.36-111.67-18.32,0-35.69,4.04-51.31,11.23Z"/>
      <circle class="cls-6" cx="265.98" cy="245.79" r="122.9"/>
      <path class="cls-7" d="M143.08,245.79c0,41.39,20.49,77.98,51.85,100.25,31.36-22.27,51.85-58.85,51.85-100.25s-20.49-77.98-51.85-100.25c-31.36,22.27-51.85,58.85-51.85,100.25Z"/>
      <path class="cls-8" d="M143.08,234.56c15.62,7.19,32.99,11.23,51.31,11.23,64.08,0,116.69-49.06,122.36-111.67-15.62-7.19-32.99-11.23-51.31-11.23-64.08,0-116.69,49.06-122.36,111.67Z"/>
      <path class="cls-5" d="M193.85,245.79c18.51,0,36.05-4.11,51.8-11.45-3.39-36.64-22.83-68.61-51.26-88.8-28.55,20.27-48.03,52.42-51.3,89.25,15.48,7.04,32.66,11,50.77,11Z"/>
    </g>
    <path class="cls-3" d="M235.67,93.11c-2.86,5.7-8.42,13.69-18.32,18.71-.68-1.67-1.32-3.52-1.84-5.53l-6.11,1.79c.66,2.27,1.45,4.33,2.26,6.12,0,0-.02,0-.02,0l2.25,5.38c15.81-4.32,23.43-15.93,26.7-22.93l-4.93-3.55Z"/>
    <path class="cls-3" d="M235.93,89.99c-5.95-.82-7.57-1.14-11.95-1.23-2.43-.05-4.62.05-6.61.21l-.91-6.13c2.24-.37,4.85-.65,7.65-.65,4.95,0,10.18.75,13.82,2.43l-2,5.37Z"/>
    <path class="cls-1" d="M257.38,89.52c-1.76,6.87-9.99,19.22-10.18,19.41-1.74-2.79-2.6-5.25-2.6-5.25,3.1-3.77,7.15-10.89,8.49-16.25l4.29,2.1Z"/>
    <path class="cls-3" d="M258.13,67.4c-3.69.92-7.21,1.59-10.14,2.1l-1.68-10.31c4.36-.67,9.89-2.01,15.58-3.69-1.01-4.36-2.76-9.8-4.94-14.49l7.54-3.52c1.93,4.11,4.11,9.89,5.36,15.42,5.61-2.01,10.98-4.27,15.17-6.62l5.11,9.05c-6.87,3.94-16.59,7.63-25.81,10.31l-6.2,1.76Z"/>
    <path class="cls-3" d="M257.29,104.1v-.75c0-6.79,2.18-12.65,4.69-18.44l3.77,1.59c-2.26,5.45-4.27,10.81-4.27,16.84v.67l-4.19.08Z"/>
    <path class="cls-3" d="M175.53,108.7h0c-6.07-1.5-16.15-2.43-27.17-2.43-13.16,0-27.63,1.31-38.09,4.86l-2.15-6.63c11.2-3.73,26.33-5.23,40.14-5.23,10.27,0,19.79.84,26.42,2.15,4.29-6.54,10.2-13.72,18.79-15.31l2.51,6.48c-5.68,2.38-12.43,7.06-16.54,14.43,0,0,0,0,0,0l-3.92,1.68ZM181.1,48.7c0,4.67-.16,14.73-.16,14.73-3.36-.56-7.66-.84-12.32-.84-14.1,0-32.39,2.43-44.16,6.16,0,0-5.19-15.65-5.19-15.81,10.26-13.7,38.26-26.05,61.83-4.24ZM166.66,82.56c-1.49-.47-3.73-.65-6.26-.65-6.81,0-16.34,1.4-23.71,3.73l-1.4-4.48c7.28-2.24,17.36-3.92,25.11-3.92,2.99,0,5.6.28,7.56.84,0,0-1.31,4.48-1.31,4.48Z"/>
    <path class="cls-3" d="M230.22,78.27l13.68-6.1c-2.97-19.4-18.53-29.62-25.13-31.71l-10.03,12.93c6.02,2.92,16.43,9.52,21.48,24.87Z"/>
    <path class="cls-1" d="M264.24,65.67c-3.52,5.03-6.35,9.44-8.45,13.88,5.45-3.02,10.89-5.45,15.92-7.12-.92-.84-1.84-1.68-2.77-2.43l3.94-4.86c4.02,3.27,8.04,7.46,12.15,12.82l-4.94,3.85c-1.68-2.18-3.35-4.19-5.03-5.95-6.87,1.84-14.75,5.53-22.29,10.39l-3.1-2.35c1.76-5.95,8.61-16.56,8.64-16.56,3.25-.92,5.93-1.68,5.93-1.68Z"/>
    <path class="cls-1" d="M291.48,112.9c-1.26-.17-2.6-.25-4.02-.25-5.7,0-11.9,1.34-17.18,3.69l-2.93-1.59c-.34-2.6-.75-7.04-.75-12.4,0-6.7.67-14.75,3.27-22.12l3.94,1.42c-2.01,5.78-3.1,13.24-3.1,21.2,0,2.85.33,5.78.59,8.63,5.19-1.84,10.89-2.85,16.26-2.85h.67c-1.76-3.69-2.6-7.12-2.6-10.22,0-2.43.5-4.61,1.51-6.62l3.77,1.84c-.75,1.51-1.17,3.1-1.17,4.86,0,3.27,1.34,6.96,3.85,11.31l-2.1,3.1Z"/>
    <path class="cls-3" d="M0,245.8c0,13.21,2.12,25.93,6,37.86h377.86c3.88-11.93,6-24.64,6-37.86s-2.12-25.93-6-37.86H6c-3.88,11.93-6,24.64-6,37.86Z"/>
    <g>
      <path class="cls-3" d="M107.74,188.56c-.42.2-1.21.42-2.41.68-.2.07-.36.07-.52.07-.97,0-1.43-.39-1.43-1.17,0-.42.23-.91.75-1.47.65-.68,1.08-1.11,1.3-1.3.55-.42,1.1-.62,1.66-.62s1.01.16,1.37.52c.39.36.59.81.59,1.37,0,.85-.46,1.5-1.3,1.92ZM118.16,194.35c-.03,1.98-.85,2.96-2.44,2.93-.49,0-1.1-.23-1.82-.68-.1-.07-.91-.65-2.44-1.76-.36-.26-.52-.49-.46-.72.06-.13.32-.19.78-.19l1.11-.03c.36-.03.55-.23.55-.62l-.23-14.8c0-.72.23-1.33.72-1.82.49-.49,1.07-.75,1.82-.75s1.33.26,1.82.75c.49.49.75,1.11.75,1.85l-.16,15.84ZM127.36,188.33c0,.62-.29.98-.91,1.04-.23.03-.42.03-.65.03-1.17,0-2.34-.39-3.48-1.2-.52-.36-.78-.85-.78-1.46,0-.49.16-.91.52-1.27.33-.36.75-.55,1.24-.55.59,0,1.17.29,1.85.85.23.2.75.62,1.53,1.34.46.39.68.78.68,1.23Z"/>
      <path class="cls-3" d="M154.19,182.67c-.49.16-1.3.46-2.47.85-.55.13-.75.46-.62,1.01.13.49.39,1.43.75,2.83.13.39.16.75.16,1.1,0,.75-.23,1.27-.75,1.56-.46.26-1.07.23-1.79-.03-1.59-.62-2.37-1.01-2.41-1.11-.03-.13.03-.2.19-.23l1.04-.16c.26-.07.33-.23.26-.49-.29-.91-.55-1.72-.85-2.44-.23-.62-.72-.91-1.5-.91-.19,0-.42,0-.65.06l-5.79,1.01c-.13.03-.29.06-.42.06-.68,0-1.27-.23-1.79-.72-.49-.49-.72-1.07-.72-1.72,0-.52.16-.98.49-1.37.32-.39.75-.62,1.23-.72,2.44-.42,4.72-.85,6.83-1.24.49-.1.65-.36.46-.81l-.65-1.56c-.13-.32-.2-.65-.2-.97,0-.62.23-1.14.62-1.53.39-.42.91-.62,1.53-.62,1.21,0,1.92.72,2.12,2.12l.33,2.18c.1.52.39.75.88.65.39-.03,1.43-.23,3.16-.52.49-.1.95,0,1.34.29.42.29.65.68.72,1.2.13,1.11-.39,1.82-1.5,2.21ZM146.71,196.92c-.55.33-1.24.46-2.02.33-2.73-.29-4.59-1.56-5.53-3.74-.16-.33-.23-.72-.23-1.11,0-.85.33-1.4.98-1.66.29-.1.52-.16.75-.16.42,0,.85.19,1.24.59.62.62,1.01.97,1.17,1.07.62.46,1.43.72,2.47.78,1.5.13,2.21.85,2.18,2.11-.03.81-.36,1.4-1.01,1.79Z"/>
      <path class="cls-3" d="M176.79,181.7c-.42.39-.88.59-1.43.55l-.98-.03c-.29,0-.45.16-.45.49l-.2,2.8c-.03.59-.26,1.07-.65,1.5-.36.42-.85.62-1.43.59-.55,0-1.01-.2-1.43-.65-.39-.46-.55-.94-.49-1.5.07-.52.16-1.4.29-2.64,0-.36-.2-.52-.52-.49l-.49.06c-.55.1-1.07-.06-1.53-.46-.42-.39-.65-.88-.68-1.43-.03-.62.16-1.14.52-1.53.36-.39.88-.59,1.47-.59h.94c.13.03.26,0,.36-.13.07-.1.1-.23.07-.36l-.07-.94c-.16-1.4.39-2.18,1.59-2.28.59-.03,1.07.13,1.53.52.42.36.62.85.62,1.43l-.03,1.4c-.03.13.03.26.13.36.13.13.26.16.39.16l1.17-.07c.52,0,1.01.13,1.4.46.36.33.55.78.52,1.33-.03.55-.23,1.01-.62,1.43ZM184.53,192.92c-.39-.13-.59,0-.59.36-.06,2.9-1.72,4.29-5.04,4.2-1.17-.03-2.18-.49-3.03-1.37-.85-.88-1.27-1.92-1.3-3.09-.06-2.83,1.43-4.36,4.42-4.62.46-.03.65-.29.59-.75-.13-.58-.19-1.04-.26-1.4,0-.62.2-1.14.59-1.53.42-.39.91-.59,1.5-.59s1.08.2,1.5.55c.42.39.68.85.78,1.4.03.29.1,1.01.16,2.08.07.59.42.94,1.17,1.1.23.07.85.13,1.79.16,1.59.06,2.37.68,2.37,1.89,0,.62-.16,1.11-.55,1.53-.39.42-.88.62-1.5.62-.39,0-1.27-.2-2.6-.55ZM179.1,191.55c-.85,0-1.3.39-1.3,1.2-.03.91.36,1.37,1.17,1.4.85.03,1.3-.39,1.4-1.27.1-.88-.33-1.34-1.27-1.34ZM188.69,181.76c-.42.36-.94.49-1.59.42-.59-.1-1.33-.2-2.24-.29-1.27-.16-1.89-.81-1.92-1.95,0-.55.2-1.01.62-1.37.42-.36.91-.55,1.5-.55.91-.07,1.69-.07,2.28,0,.65.06,1.17.29,1.56.68.39.39.59.94.52,1.59-.03.62-.26,1.14-.72,1.46Z"/>
      <path class="cls-3" d="M199.48,194.32c-.65.2-1.33.33-1.98.33-.59,0-.88-.23-.88-.65,0-.33.39-.85,1.2-1.56.29-.26.62-.39,1.01-.39.88,0,1.33.46,1.33,1.3,0,.49-.23.81-.68.97ZM205.01,188.66c-.85.07-2.02.07-3.41.07-.88,0-1.47-.07-1.76-.2-.52-.23-.81-.62-.88-1.24-.07-.65.23-1.5.85-2.5.2-.33.29-.59.29-.81s-.13-.46-.36-.68l-1.08-1.11c-.52-.55-.78-1.11-.78-1.63,0-.72.59-1.53,1.76-2.44.33-.29.81-.72,1.47-1.27.59-.49,1.14-.72,1.66-.72.42,0,.81.13,1.14.39.33.23.49.59.49.98s-.16.72-.52.94c-.78.46-1.76,1.04-2.9,1.79-.23.13-.23.32-.03.55,1.34,1.27,2.02,2.15,2.02,2.64,0,.33-.2.81-.62,1.43-.06.06-.16.26-.33.52l-.1.16c-.07.1-.1.16-.1.26,0,.03,0,.1.03.16.07.13.2.23.33.23,1.14,0,1.95-.06,2.5-.16.23-.06.29-.19.2-.46,0-.06-.13-.26-.29-.59-.16-.23-.23-.46-.23-.62,0-.65.36-.94,1.07-.94.46,0,.81.16,1.04.55.78,1.27,1.17,2.15,1.17,2.67,0,1.23-.88,1.89-2.64,2.02ZM203.74,197.15c-.26.29-.59.42-.94.42s-.68-.13-.97-.39c-.29-.26-.42-.59-.42-.94l.1-5.57c.03-.78.42-1.17,1.24-1.17.32,0,.65.13.91.36.26.26.39.55.39.88l.13,5.43c0,.36-.13.68-.42.97ZM207.26,194.25c-1.43-.1-2.15-.49-2.15-1.23s.39-1.11,1.11-1.11c.39,0,.75.16,1.04.49.59.65.88,1.08.88,1.24,0,.46-.29.65-.88.62ZM224.73,196.73c-.39.39-.85.59-1.34.59-6.25.13-10.67.16-13.28.16-.55,0-.97-.19-1.33-.55-.39-.39-.55-.85-.52-1.36.03-.55.26-1.04.62-1.4.39-.39.85-.59,1.4-.59h.1c.1,0,.19,0,.29-.03.39,0,.62-.19.62-.55l.03-11.58c0-1.66.16-2.83.52-3.51.85-1.66,2.64-2.47,5.34-2.47,2.41,0,4.03.81,4.95,2.44.46.85.68,2.05.72,3.58l.13,11.84c0,.26.13.39.39.39l.2-.03c.49-.03.91.13,1.23.49.33.33.49.75.49,1.27,0,.49-.19.94-.55,1.34ZM218.51,185.86c-.16-.23-.36-.33-.62-.33h-2.02c-.68,0-1.04.33-1.07,1.01-.03.72.33,1.07.97,1.07h1.85c.75-.1,1.11-.45,1.14-1.04,0-.26-.06-.49-.26-.72ZM218.94,180.2c-.23-.23-.52-.36-.81-.39l-1.72-.07c-.39,0-.75.1-.98.29-.26.23-.39.52-.36.91.03.88.46,1.3,1.34,1.27.81,0,1.4-.03,1.82-.03.68-.1,1.04-.49,1.04-1.17,0-.29-.13-.59-.32-.81ZM217.7,190.97l-1.4-.07c-.75-.03-1.17.33-1.17,1.11-.03.81.36,1.2,1.1,1.2.91,0,1.47,0,1.63-.06.59-.13.88-.52.88-1.11,0-.68-.36-1.04-1.04-1.07Z"/>
      <path class="cls-3" d="M228.81,193.9c-.55,0-.81-.23-.81-.68,0-.19.1-.42.29-.65.06-.1.36-.39.85-.85.26-.23.59-.36.91-.36.85,0,1.27.42,1.27,1.27s-.81,1.24-2.51,1.27ZM237.47,187.42c-.39.33-.85.52-1.43.55-1.01.1-2.21.13-3.68.1-.85,0-1.4-.07-1.66-.2-.52-.19-.78-.62-.85-1.2-.03-.62.23-1.43.81-2.44.16-.29.26-.55.26-.78,0-.26-.13-.49-.33-.72l-1.01-1.07c-.49-.52-.75-1.04-.75-1.59,0-.75.55-1.53,1.66-2.41.46-.42.94-.81,1.4-1.17.62-.49,1.14-.75,1.56-.75.39,0,.75.13,1.08.39.29.29.46.62.46.98,0,.39-.16.68-.49.91l-2.73,1.72c-.1.1-.16.2-.16.29,0,.07.39.52,1.17,1.37.55.59.85,1.11.85,1.5,0,.26-.2.72-.59,1.37-.07.16-.2.39-.42.68-.06.13-.06.29-.03.42.06.16.2.23.33.23,1.1-.03,1.89-.07,2.37-.16.2-.06.26-.2.16-.46,0-.06-.1-.23-.26-.49-.16-.26-.23-.49-.23-.68,0-.62.33-.91,1.01-.91.39,0,.68.16.91.46.07.03.23.32.52.88.45.81.65,1.43.65,1.85,0,.55-.2.98-.59,1.33ZM234.41,196.34c-.26.26-.55.39-.95.42-.36,0-.68-.13-.91-.39-.26-.26-.39-.55-.39-.91l.1-5.43c0-.33.1-.59.33-.81.26-.23.52-.33.85-.33.78,0,1.17.39,1.21,1.17l.13,5.34c0,.36-.13.68-.36.94ZM237.95,193.47c-1.37-.1-2.05-.49-2.05-1.17,0-.72.36-1.08,1.04-1.08.42,0,.75.13,1.01.42.52.62.81,1.04.81,1.27,0,.42-.29.59-.81.55ZM257.54,195.23l-.42,1.69c-.13.49-.23.85-.29,1.01-.19.36-.42.55-.78.62-.68.13-1.72-.82-3.16-2.83-.19-.26-.42-.29-.68-.13-.32.23-.75.52-1.23.78-.23.13-.46.19-.75.19-.65,0-.97-.32-.97-.94,0-.36.49-1.17,1.47-2.37.23-.26.19-.68-.07-1.21-.49-.97-.91-2.31-1.24-4.03-.13-.62-.29-1.01-.49-1.17-.16-.13-.59-.23-1.24-.23-.97,0-3.45.03-7.38.06-.42,0-.81-.13-1.11-.42-.33-.33-.49-.68-.49-1.11-.03-.46.13-.85.42-1.17.29-.33.65-.46,1.11-.46,1.89-.03,4.52-.1,7.84-.23.72-.03,1.07-.36,1.07-1.01l.03-3.74c0-.49.16-.91.52-1.24.33-.32.75-.46,1.27-.42.49.06.88.26,1.17.59.29.33.42.75.36,1.24-.07.59-.2,1.72-.39,3.48-.03.16.03.29.13.42.13.1.26.16.42.13l1.59-.06c.52-.03.94.13,1.27.49.29.33.46.75.46,1.27,0,.55-.16,1.04-.52,1.37-.36.36-.81.55-1.37.55-.07,0-.62,0-1.59-.03-.16,0-.29.06-.39.19-.1.1-.13.23-.13.39.16,1.14.39,2.11.68,2.96,0,.1.07.16.2.16.07,0,.13-.07.16-.13l.59-1.27c.23-.55.65-.81,1.3-.81.39,0,.75.13,1.01.42.29.26.42.59.42.98,0,.23-.03.42-.13.59-.46.81-.94,1.63-1.53,2.37-.36.46-.39.91-.1,1.34.49.72.91,1.24,1.27,1.59.1.1.2.13.26.13.1,0,.2-.03.26-.13.1-.1.29-.26.59-.55.29-.26.49-.33.62-.2.1.07.1.36-.03.88ZM247.98,178.41c-.33.33-.68.49-1.07.49-.72,0-2.7.03-5.99.06-.42,0-.81-.16-1.14-.46-.33-.29-.46-.65-.46-1.11s.13-.88.46-1.2c.29-.33.68-.49,1.14-.52l.94-.03c.23,0,.36-.13.36-.42v-.32c0-.52.16-.94.49-1.3.33-.33.72-.49,1.24-.49.52.03.91.23,1.24.55.33.36.46.78.42,1.3l-.03.49c-.03.13,0,.23.1.33.07.1.2.13.33.13l.97-.03c.39-.03.75.13,1.04.42.29.29.46.65.46,1.04s-.16.78-.49,1.07ZM242.51,181.24c0,.75-.36,1.11-1.11,1.11-.39,0-.68-.13-.85-.39l-.13-.2c-.16-.26-.26-.49-.26-.72,0-.72.36-1.07,1.11-1.07.36,0,.65.13.85.42l.1.13c.2.19.29.46.29.72ZM243.65,196.76c-2.18,0-3.32-1.2-3.32-3.64v-1.59c0-1.95,1.07-2.9,3.19-2.9,2.25-.03,3.42.91,3.45,2.8l.03,1.69c.03,2.37-1.07,3.58-3.35,3.64ZM243.91,191.03l-.59.03c-.42.03-.65.2-.65.55.03.42.23.59.62.55.49-.03.78-.06.81-.1.33-.07.49-.26.46-.55-.06-.36-.26-.52-.65-.49ZM243.88,193.8l-.49.03c-.39.03-.55.19-.55.55,0,.42.16.62.52.65.33.03.59,0,.78-.06.26-.1.42-.29.42-.59-.03-.42-.26-.62-.68-.59ZM245.05,181.44c0-.13.03-.26.06-.39l.1-.26c.2-.55.55-.85,1.07-.85.29,0,.55.1.78.32.2.2.33.46.33.75,0,.33-.2.62-.52.91-.32.26-.68.39-.97.39-.55,0-.85-.29-.85-.88ZM256.24,177.34c-.06.32-.19.55-.42.75-.26.23-.59.36-.98.32-.85,0-1.23-.42-1.2-1.27l.03-.75c.03-.36.16-.68.42-.91.26-.26.59-.36.94-.33.36,0,.65.16.91.42.26.26.39.59.36.94-.03.46-.03.72-.07.81Z"/>
      <path class="cls-3" d="M283.36,191.91c-.68,1.37-1.59,2.38-2.73,3.03-.49.29-.88.42-1.2.42-.42,0-.62-.2-.62-.62,0-.13.19-.59.59-1.34.88-1.76,1.33-3.58,1.33-5.47s-.59-3.09-1.76-3.81c-.42-.26-.78-.36-1.07-.29-.36.06-.68.39-.98,1.01-1.72,3.51-3.54,6.05-5.5,7.55-.78.62-1.69.95-2.67.95-1.34,0-2.34-.65-2.99-1.92-.59-1.14-.85-2.41-.78-3.84.13-2.77,1.17-4.95,3.09-6.54,1.82-1.5,4.16-2.21,7.03-2.18,2.76.03,4.98.88,6.67,2.5,1.69,1.59,2.54,3.81,2.54,6.54,0,1.4-.33,2.73-.94,4ZM273.63,183.52c0-.46-.42-.68-1.2-.59-1.11.1-1.99.55-2.73,1.37-.72.81-1.14,1.76-1.21,2.86-.13,1.4.2,2.15.98,2.15.36.03.72-.16,1.07-.55.75-.85,1.72-2.34,2.86-4.49.13-.29.23-.52.23-.75Z"/>
      <path class="cls-1" d="M46.08,229.81c-.46.39-.97.59-1.56.59l-5.4-.16c-.42-.03-.75.06-.97.33-.23.23-.33.55-.33.97.03,1.3.07,2.51.03,3.61,0,.68-.19,1.27-.52,1.79-.39.59-.91.88-1.56.91-.62.06-1.3-.23-2.15-.81-.29-.23-.94-.72-1.85-1.5-.36-.29-.52-.52-.49-.68.07-.23.26-.33.65-.33h1.2c.29,0,.46-.2.46-.59v-2.24c0-1.04-.52-1.56-1.56-1.53l-6.31.2c-.49,0-.91-.16-1.27-.49-.36-.36-.55-.78-.55-1.27.03-.52.23-.94.59-1.3.36-.36.78-.55,1.3-.55,2.47,0,4.68-.03,6.57-.1.78,0,1.14-.39,1.14-1.14,0-.29-.1-.59-.33-.81-.26-.23-.52-.36-.81-.36l-5.27.1c-.52,0-.97-.2-1.37-.55-.39-.36-.59-.81-.59-1.33-.03-.55.13-1.01.49-1.37.36-.36.82-.55,1.34-.55h5.24c.94,0,1.4-.36,1.4-1.04v-.52c0-.62-.36-.94-1.14-.94h-.52c-.13,0-.23,0-.36.03h-.2c-1.3,0-1.98-.49-2.05-1.43,0-.85.59-1.4,1.79-1.72,2.77-.75,4.85-1.4,6.18-1.98.42-.2.85-.29,1.27-.29.62,0,1.17.19,1.59.59.42.39.65.91.65,1.53,0,.91-.36,1.47-1.07,1.76-.23.1-.68.23-1.43.46-.46.13-.65.39-.65.85l.06,1.4c.03.33.16.62.42.88.26.23.55.36.88.33l4.46-.23c.55,0,1.01.16,1.4.55.39.39.55.85.55,1.4-.03.55-.26,1.04-.65,1.43-.39.36-.88.55-1.47.55l-4.36-.03c-.68,0-1.04.36-1.07,1.1,0,.29.1.55.29.75.2.19.46.29.75.29l5.53-.16c.62-.03,1.11.16,1.56.59.42.42.65.94.68,1.53,0,.62-.2,1.11-.62,1.53Z"/>
      <path class="cls-1" d="M72.25,229.58c-.23,2.31-.39,3.74-.52,4.26-.49,1.92-1.33,2.83-2.47,2.8-.39-.03-1.01-.39-1.82-1.1-.23-.16-.59-.49-1.1-.98-.23-.23-.36-.39-.36-.49-.03-.16.13-.23.49-.23h.81c.33,0,.55-.1.62-.36.55-2.57.85-4.91.85-7.03,0-.65-.23-1.07-.72-1.27-.29-.16-.78-.23-1.5-.23-.16,0-.39,0-.65.07-.98.13-1.59.68-1.85,1.63-.91,3.35-1.79,6.09-2.7,8.17-.32.81-.91,1.2-1.76,1.2-.29,0-.55-.07-.78-.16-.72-.33-1.07-.91-1.07-1.72,0-.29.07-.59.2-.81.42-1.08,1.3-3.52,2.67-7.35.03-.13.03-.23-.07-.36-.1-.1-.19-.13-.36-.1-.16.07-.52.13-1.07.26-.2.07-.36.1-.55.1-.49,0-.91-.16-1.3-.49-.36-.33-.59-.75-.68-1.24-.1-.62.03-1.2.39-1.72.36-.52.85-.81,1.5-.94.62-.1,1.27-.19,1.89-.23.85-.19,1.3-.52,1.33-1.07l.23-2.6c.07-.68.29-1.21.72-1.63.42-.39.98-.55,1.66-.49.55.07,1.01.29,1.37.68.36.39.55.85.55,1.4,0,.2-.03.39-.1.62-.1.68-.23,1.4-.39,2.18-.06.46.13.68.62.68.29-.06.75-.06,1.37-.06,3.16-.07,4.78,1.3,4.88,4.16.03.85-.06,2.34-.29,4.46ZM79.74,223.27c0,.75-.33,1.3-.95,1.63-.26.13-.55.23-.85.23-.72,0-1.27-.36-1.69-1.04l-1.23-2.08c-.29-.49-.42-.91-.42-1.3s.13-.72.46-.97c.33-.23.68-.36,1.11-.36.72,0,1.36.33,1.95.94l1.27,1.69c.23.39.36.81.36,1.27ZM76.68,217.87c-.59.1-.97-.2-1.1-.78l-.16-.65c-.03-.16-.06-.29-.06-.42,0-.62.29-.97.81-1.04.39-.03.72.03.94.26.26.2.36.52.36.88v.39c0,.81-.26,1.27-.78,1.37ZM79.93,217.41c-.62.1-.97-.16-1.14-.78l-.13-.65c-.06-.16-.06-.29-.06-.39,0-.62.26-.94.85-1.04.36-.06.65.03.91.26.23.23.36.52.36.88v.39c0,.81-.26,1.27-.78,1.33Z"/>
      <path class="cls-1" d="M107.64,233.42c-1.43,1.69-3.9,2.57-7.45,2.57h-.42c-.29,0-.52.03-.68.03h-1.17c-3.48-.03-5.89-.78-7.22-2.24-1.27-1.4-1.89-3.84-1.89-7.35v-2.15c0-3.41.68-5.85,2.08-7.25s3.81-2.12,7.22-2.12h1.76c3.16,0,5.5.75,7.03,2.28,1.56,1.5,2.34,3.84,2.41,7.03l.03,2.37c.03,3.12-.52,5.4-1.69,6.83ZM106.27,224.96c0-1.69-.2-2.99-.55-3.94-.49-1.27-1.34-2.02-2.51-2.21-1.53-.26-3.06-.36-4.62-.36-1.89,0-3.51.16-4.85.55-1.33.36-2.08,1.85-2.28,4.46-.07.91,0,2.77.19,5.53.13,2.02,1.14,3.16,3.03,3.38,1.72.23,3.19.33,4.36.33,1.34,0,2.57-.1,3.68-.33,2.18-.39,3.32-1.66,3.38-3.77.03-1.24.1-2.44.16-3.65ZM99.21,229.29h-1.08c-.94,0-1.72-.36-2.34-1.11-.62-.65-.91-1.53-.91-2.64,0-.29,0-.49.03-.55.1-.95.45-1.66,1.1-2.18.65-.52,1.43-.78,2.41-.78h.75c2.21,0,3.39,1.04,3.58,3.12.03.23.03.42.03.59,0,2.34-1.17,3.55-3.58,3.55ZM99.08,224.86l-.62-.03c-.81-.03-1.24.33-1.3,1.08-.03.23.03.49.23.75.2.23.42.39.65.39.55.03.94.03,1.2,0,.26,0,.52-.13.72-.36.23-.23.33-.46.29-.75,0-.68-.39-1.04-1.17-1.08Z"/>
      <path class="cls-1" d="M134.85,234.59c-1.34.91-2.96,1.36-4.91,1.36-.91,0-1.72-.13-2.44-.32-.42-.13-.65-.36-.65-.65-.03-.29.29-.52.88-.62,3.32-.65,5.04-2.12,5.21-4.46.03-.78-.16-1.37-.55-1.79-.42-.42-1.04-.59-1.82-.52-.62.1-1.47.23-2.54.39-1.14,0-1.92-.33-2.31-1.01-.23-.39-.36-1.07-.36-2.02v-5.63c0-.59.23-1.11.68-1.53.42-.42.94-.62,1.56-.62.59,0,1.08.23,1.47.68s.55.97.52,1.56l-.32,4.46c0,.29.06.49.23.62.16.13.42.16.72.13,1.04-.16,1.85-.2,2.37-.16,1.5.13,2.67.68,3.45,1.66.81,1.01,1.21,2.25,1.21,3.78,0,2.05-.78,3.58-2.38,4.69ZM135.8,218.22c-.91,0-2.18-.46-3.84-1.37-.78-.46-1.2-1.04-1.2-1.82,0-.98.49-1.47,1.46-1.47.42,0,.98.13,1.69.39.36.13,1.01.33,1.98.55,1.17.33,1.76.91,1.76,1.82,0,.23-.03.49-.16.81-.26.72-.81,1.07-1.69,1.07Z"/>
      <path class="cls-1" d="M160.84,220.76c-.42.39-.88.59-1.43.55l-.98-.03c-.29,0-.45.16-.45.49l-.2,2.8c-.03.59-.26,1.07-.65,1.5-.36.42-.85.62-1.43.59-.55,0-1.01-.2-1.43-.65-.39-.46-.55-.94-.49-1.5.07-.52.16-1.4.29-2.63,0-.36-.2-.52-.52-.49l-.49.07c-.55.1-1.07-.07-1.53-.46-.42-.39-.65-.88-.68-1.43-.03-.62.16-1.14.52-1.53.36-.39.88-.59,1.47-.59h.94c.13.03.26,0,.36-.13.07-.1.1-.23.07-.36l-.07-.94c-.16-1.4.39-2.18,1.59-2.28.59-.03,1.07.13,1.53.52.42.36.62.85.62,1.43l-.03,1.4c-.03.13.03.26.13.36.13.13.26.16.39.16l1.17-.07c.52,0,1.01.13,1.4.46.36.33.55.78.52,1.34-.03.55-.23,1.01-.62,1.43ZM168.58,231.99c-.39-.13-.59,0-.59.36-.06,2.9-1.72,4.29-5.04,4.2-1.17-.03-2.18-.49-3.03-1.36-.85-.88-1.27-1.92-1.3-3.09-.06-2.83,1.43-4.36,4.42-4.62.46-.03.65-.29.59-.75-.13-.59-.19-1.04-.26-1.4,0-.62.2-1.14.59-1.53.42-.39.91-.59,1.5-.59s1.08.2,1.5.55c.42.39.68.85.78,1.4.03.29.1,1.01.16,2.08.07.59.42.94,1.17,1.11.23.06.85.13,1.79.16,1.59.07,2.37.68,2.37,1.89,0,.62-.16,1.11-.55,1.53-.39.42-.88.62-1.5.62-.39,0-1.27-.2-2.6-.55ZM163.15,230.62c-.85,0-1.3.39-1.3,1.21-.03.91.36,1.36,1.17,1.4.85.03,1.3-.39,1.4-1.27.1-.88-.33-1.34-1.27-1.34ZM172.74,220.83c-.42.36-.94.49-1.59.42-.59-.1-1.33-.19-2.24-.29-1.27-.16-1.89-.81-1.92-1.95,0-.55.2-1.01.62-1.37.42-.36.91-.55,1.5-.55.91-.06,1.69-.06,2.28,0,.65.07,1.17.29,1.56.68.39.39.59.94.52,1.59-.03.62-.26,1.14-.72,1.47Z"/>
      <path class="cls-1" d="M190.33,230.1c-.42.39-.78.68-1.07.91-.46.36-.88.55-1.27.62-1.17.16-2.11-.91-2.83-3.29-.42-1.47-.75-3.09-.91-4.82-.16-1.69.52-2.64,2.02-2.83.62-.1,1.21.07,1.76.49.52.39.81.91.81,1.5.13,2.15.32,3.64.65,4.59.1.29.39.46.85.46.16,0,.39-.03.65-.03.29-.03.52-.03.65-.03.42,0,.62.1.65.29.03.2-.62.91-1.95,2.15ZM203.64,231.33c-.46.03-1.04-.16-1.72-.62-.16-.1-.59-.42-1.27-.94-.36-.26-.52-.46-.55-.52,0-.16.1-.23.36-.23h.72c.29,0,.42-.16.42-.52.06-2.08-.23-3.94-.91-5.56-.13-.29-.2-.59-.2-.88,0-.55.2-.97.55-1.3s.85-.49,1.37-.49c1.1,0,1.79.55,2.11,1.66.68,2.34.97,4.72.88,7.09-.06,1.43-.65,2.21-1.76,2.31Z"/>
      <path class="cls-1" d="M228.54,237.26c-.91.03-1.92.03-3.09,0-3.06-.13-5.34-.85-6.8-2.21-1.82-1.69-2.77-4.46-2.8-8.36l-.03-3.68c-.07-6.28,3.09-9.47,9.5-9.6l3.12-.03c6.22.42,9.34,3.61,9.37,9.5l.03,4.16c.03,6.51-3.06,9.92-9.3,10.22ZM229.49,216.89h-6.18c-1.27,0-2.28.39-3.03,1.17-.78.81-1.14,1.82-1.14,3.09l.06,8.1c0,1.17.36,2.18,1.07,2.99.72.81,1.66,1.27,2.86,1.37,2.86.26,5.24.23,7.06-.03,1.21-.16,2.18-.62,2.93-1.34.75-.75,1.11-1.69,1.11-2.86l.03-8.1c.03-2.93-1.56-4.39-4.78-4.39ZM231.28,230.23c-.45.03-1.07-.36-1.82-1.14-.46-.55-.94-1.1-1.43-1.69-.03-.06-.1-.1-.19-.06-.07.03-.13.06-.13.16.03.39.1,1.21.2,2.44.03.39-.1.72-.36,1.01-.26.29-.59.46-.97.46s-.72-.13-1.01-.42c-.26-.26-.36-.62-.36-1.01l.13-2.05c0-.07-.03-.13-.13-.13-.07-.03-.13,0-.2.06-.78.78-1.56,1.34-2.34,1.69-.52.26-.91.2-1.17-.16-.26-.29-.03-.98.65-1.99.52-.65,1.01-1.27,1.5-1.92.13-.26,0-.39-.29-.39-.07,0-.33,0-.78.03-.46,0-.81-.13-1.14-.46-.33-.29-.49-.68-.49-1.11s.16-.81.49-1.1c.33-.33.68-.49,1.11-.49.72.03,1.3.03,1.82,0,.32,0,.45-.13.42-.42v-.62c-.03-.49.13-.94.52-1.3.36-.39.78-.59,1.27-.59s.91.2,1.27.59c.32.39.49.85.46,1.34l-.07.78c-.03.32.13.49.49.49h1.76c.46-.03.85.1,1.14.39.29.33.46.68.42,1.14-.03.42-.2.81-.49,1.1-.29.33-.68.46-1.14.46h-.72c-.1,0-.16.07-.23.13-.03.1-.03.19.03.26.29.39.85.88,1.69,1.5.06.06.16.1.23.1h.23c.39-.1.62-.16.65-.13,0,.03-.03.2-.13.42-.03.13-.07.23-.03.29.1.13.19.29.33.55.03.16.06.36.1.59,0,.75-.42,1.14-1.27,1.21Z"/>
      <path class="cls-1" d="M257.49,224.83c-.88,1.11-1.37,1.72-1.46,1.82-.68.75-1.3,1.14-1.89,1.2-.75.07-1.3-.42-1.66-1.4-.49-1.37-.88-3.68-1.14-6.9-.03-.65.13-1.17.46-1.63.36-.42.81-.65,1.47-.72.55,0,1.04.2,1.43.59.39.39.62.85.62,1.4,0,1.33.07,3.06.16,5.21.06.26.26.32.52.23.13-.03.46-.16.94-.33.39-.13.62-.1.68.1.03.1,0,.26-.13.42ZM260.03,234.95c-.75.78-1.5,1.17-2.21,1.17-.59,0-.88-.33-.88-.98,0-.39.23-.97.68-1.76,2.02-3.51,3.03-7.52,3.03-12.07,0-.85-.06-1.63-.16-2.41-.1-.55.03-1.07.39-1.56.36-.49.82-.78,1.37-.82.68-.03,1.24.13,1.69.49.46.39.78,1.04.88,2.02.07.36.07,1.11.07,2.31,0,5.76-1.59,10.28-4.85,13.6Z"/>
      <path class="cls-1" d="M296.45,221.06c-.75,1.63-1.33,2.44-1.79,2.44-.26,0-.46-.2-.59-.62,0-.03,0-.36-.07-.94-.03-.39-.29-.59-.78-.62-1.72-.1-4.42-.03-8.16.16-.62.07-1.21-.13-1.66-.49-.49-.39-.72-.91-.75-1.53-.03-.65.2-1.17.62-1.63.46-.46,1.01-.72,1.63-.72,3.81-.2,6.7-.2,8.75-.03,1.76.1,2.8.78,3.09,1.98.13.55.03,1.21-.29,1.99ZM294.01,234.33c-1.24.2-2.34.29-3.35.29-1.59,0-3.06-.23-4.42-.68-1.92-.62-2.9-1.53-2.9-2.77,0-.13.03-.29.03-.42.2-.97.88-1.46,2.08-1.46.33,0,.65.03.94.1,1.04.32,2.15.46,3.32.46s2.41-.13,3.78-.46c.19-.03.42-.03.68-.03.62,0,1.17.13,1.63.46.55.42.85,1.08.85,1.95,0,1.43-.88,2.28-2.64,2.57ZM300.03,219.62c-.59.07-.97-.19-1.1-.78l-.16-.62c-.03-.16-.06-.33-.06-.46,0-.59.29-.94.85-1.01.36-.06.68,0,.91.23.26.23.36.52.36.88v.42c0,.78-.26,1.23-.78,1.33ZM303.28,219.17c-.55.1-.91-.16-1.1-.75l-.16-.65c-.06-.13-.06-.29-.06-.42,0-.62.26-.95.85-1.04.36-.07.68.03.91.23.26.23.39.52.39.88v.42c0,.81-.26,1.23-.81,1.33Z"/>
      <path class="cls-1" d="M328.45,234.98c-.55.52-1.2.81-1.95.88-.52.03-1.07.06-1.66.06-4.91,0-7.71-2.02-8.4-6.08-.03-.39-.06-.78-.06-1.17,0-1.76.52-3.35,1.63-4.72.36-.46.52-.91.52-1.4,0-.2-.06-.42-.13-.68-.1-.26-.55-1.89-1.37-4.91-.06-.23-.1-.42-.1-.55,0-.59.23-1.07.68-1.5.46-.39.98-.59,1.56-.59,1.2,0,1.92.59,2.15,1.76.29,1.59.55,2.8.81,3.64.1.29.29.42.62.42.13,0,.23-.03.36-.1l1.79-1.17c.55-.26,1.11-.39,1.63-.39.82,0,1.43.33,1.86,1.04.16.29.23.55.23.81,0,.91-.45,1.5-1.4,1.79-3.97,1.17-5.92,3.06-5.92,5.63,0,.29.03.62.13,1.01.29,1.37,1.14,2.15,2.54,2.28.68.1,1.59,0,2.67-.29.16,0,.29-.03.46-.03.65,0,1.21.26,1.63.72.42.46.62,1.04.59,1.69-.03.75-.32,1.37-.85,1.85Z"/>
      <path class="cls-1" d="M360.16,226.46c-.55.13-.85.2-.88.2-.33.16-.46.39-.36.65.26.62.39,1.07.39,1.36,0,.46-.16.81-.49,1.14-.33.29-.72.46-1.14.46-.75,0-1.2-.39-1.4-1.17-.2-.68-.46-.97-.75-.85-2.15.97-3.16,2.15-2.96,3.54.13.88.88,1.34,2.28,1.4.55,0,1.59-.1,3.06-.32.59-.1,1.07.06,1.47.42.42.36.62.81.65,1.4.03.59-.13,1.11-.52,1.5-.36.42-.88.65-1.5.68-1.69.1-2.93.13-3.68.03-3.55-.39-5.3-2.15-5.24-5.27.03-2.67,1.66-4.69,4.81-6.12.26-.1.39-.23.39-.42,0-.49-.72-.78-2.12-.91-1.27-.1-1.95-.72-1.98-1.82,0,.16,0-.07.03-.65v-.75c0-.42-.23-.59-.65-.55-.13,0-.42,0-.97.03-.65.03-1.21-.13-1.66-.55-.49-.45-.72-.97-.75-1.59-.03-.65.19-1.17.62-1.59.42-.39.98-.62,1.59-.65l1.2-.06c.2,0,.33-.13.36-.42v-.78c.03-.62.26-1.14.65-1.59.42-.42.94-.65,1.56-.65h.29c.65,0,1.17.26,1.56.75.39.52.55,1.11.45,1.72,0,.29,0,.59-.03.81-.03.2.03.33.16.42.13.1.26.13.46.13l3.25-.1c.55,0,1.04.16,1.43.49.39.36.55.82.55,1.34-.03.55-.23,1.01-.62,1.37-.39.36-.85.52-1.4.49-2.44-.07-3.77-.07-4.03-.07-.39,0-.62.2-.62.59-.03.29-.03.55,0,.81,0,.32.1.49.29.55,1.53.23,2.5.75,2.96,1.59.2.36.46.46.85.29.91-.42,1.53-.65,1.85-.65.49,0,.91.16,1.3.52.36.32.55.75.55,1.23,0,.85-.46,1.4-1.3,1.63Z"/>
      <path class="cls-1" d="M79,261.16c-.33.36-.75.55-1.2.55-.16,0-.42.03-.72.03s-.46.16-.46.49v.62c0,.39.16.75.52,1.08.16.13.52.36,1.11.68.49.29.75.75.75,1.37,0,.42-.13.75-.42,1.04-.29.26-.62.39-1.04.39-.39,0-.81-.2-1.27-.59-.07-.07-.13-.1-.2-.03-.07,0-.13.07-.13.13l.2,6.34c.03.49-.13.91-.46,1.27-.33.33-.75.52-1.24.55-.46,0-.85-.13-1.2-.49-.33-.33-.49-.72-.46-1.17,0-.46.03-1.24.13-2.31.06-.98.1-1.76.1-2.34,0-.13-.1-.26-.23-.32-.16-.03-.29-.03-.39.03-.52.42-.97.65-1.37.65-.52,0-.78-.26-.78-.75,0-.33.13-.72.46-1.14,1.27-1.66,2.05-2.96,2.37-3.94.03-.03.07-.29.07-.81.03-.36-.13-.55-.49-.55-.23.07-.45.07-.75.07-.49.03-.91-.13-1.27-.52-.39-.36-.59-.78-.59-1.27-.03-.52.13-.94.46-1.3s.75-.52,1.24-.55c.13,0,.49,0,1.07-.03.39,0,.59-.23.59-.65l-.03-1.56c0-.49.16-.88.46-1.2.32-.33.72-.49,1.17-.49s.81.16,1.14.46c.32.33.49.72.49,1.17l-.03,1.69c0,.36.16.52.49.52.13,0,.39,0,.75-.03.46-.03.88.13,1.21.46.36.33.52.72.52,1.21-.03.49-.2.91-.55,1.27ZM95.26,261.68c-.33.33-.75.49-1.2.49-5.43-.06-9.4-.03-11.91.1-.42.03-.81-.13-1.14-.42-.33-.29-.49-.65-.49-1.08-.03-.46.13-.81.42-1.14.33-.29.68-.46,1.14-.49l1.24-.03c.36,0,.52-.2.52-.59l-.03-.59c-.03-.23-.16-.36-.36-.36h-.62c-.42-.03-.81-.2-1.14-.49-.33-.29-.49-.68-.49-1.1,0-.49.16-.91.49-1.24.32-.36.72-.52,1.2-.52h.49c.2,0,.33-.13.33-.36l-.03-.68c-.03-.42.1-.78.36-1.08.29-.32.65-.46,1.07-.42.42.03.78.16,1.07.46.29.29.42.65.42,1.07l-.03.59c0,.13.03.2.1.29.1.06.19.1.29.1l2.18-.03c.23,0,.36-.13.36-.42v-.68c0-.36.16-.68.42-.98.29-.29.59-.42.94-.42s.68.13.97.39c.26.26.39.59.36.94l-.03.81c0,.23.13.36.36.36h.52c.42,0,.81.13,1.1.42.33.29.46.65.46,1.1-.03.46-.19.81-.55,1.14-.33.29-.68.46-1.14.46h-.42c-.26,0-.39.1-.39.33v.75c0,.39.23.59.65.59h1.37c.46,0,.81.13,1.14.46.33.29.49.68.49,1.11,0,.49-.16.88-.49,1.17ZM93.28,276.58c-.49.03-.94.03-1.37-.07-1.17-.26-2.05-.91-2.67-1.95-.36-.59-.75-.85-1.24-.78-.36,0-.72.26-1.01.75-.65,1.07-1.56,1.79-2.73,2.11-.26.07-.46.07-.65-.06-.19-.13-.29-.29-.29-.55,0-.33.13-.65.42-1.01.62-.81.95-1.33.95-1.56,0-.16-.16-.23-.52-.26-.55-.03-1.04-.26-1.43-.68-.39-.39-.62-.88-.62-1.43l-.06-2.54c-.07-2.73,1.17-4.13,3.68-4.16.06,0,.36-.03.85-.03.16,0,.23-.1.23-.26v-.33c0-.29.13-.55.39-.81.26-.23.52-.36.81-.36.33,0,.59.1.85.33.26.23.39.49.39.78v.26c0,.13.06.23.2.23l1.04-.03c2.24-.06,3.38,1.21,3.48,3.81,0-.1-.03,1.11-.07,3.55,0,.49-.16.91-.52,1.24-.39.36-.81.52-1.3.52-.23.03-.29.13-.23.29.23.59.75,1.07,1.56,1.43.59.23.88.55.85.91-.03.39-.36.62-.97.68ZM86.28,269.78h-.78c-.42,0-.65.2-.65.59,0,.16.06.33.16.42.13.13.26.16.42.16h.78c.39,0,.59-.23.59-.62.03-.39-.16-.55-.52-.55ZM86.77,267.01c-.1-.13-.23-.16-.36-.16l-1.01.03c-.29,0-.49.16-.49.52s.16.52.49.55c.29.03.62.03.97,0,.36-.03.55-.23.55-.59,0-.13-.03-.26-.16-.36ZM88.89,257.35h-1.27c-.52,0-.78.29-.78.88,0,.23.1.42.26.59.16.2.33.26.52.26.81,0,1.27,0,1.37-.03.49-.06.72-.36.68-.88,0-.55-.29-.81-.78-.81ZM90.51,266.76l-.72.03c-.36,0-.52.23-.52.59s.16.52.52.52h.81c.36,0,.52-.2.46-.62,0-.36-.2-.55-.55-.52ZM90.58,269.88h-.72c-.39,0-.59.23-.55.62,0,.39.23.62.62.62h.62c.42,0,.62-.23.62-.62s-.19-.62-.59-.62Z"/>
      <path class="cls-1" d="M112.56,272.97c-1.92.06-3.35.1-4.29.1-3.74-.03-5.63-1.99-5.7-5.89l-.19-10.9c0-.42.16-.81.49-1.14.33-.33.72-.49,1.14-.49.49,0,.88.2,1.2.49.33.32.49.72.49,1.17l.03,11.52c0,1.59.72,2.34,2.15,2.28l4.78-.23c.42,0,.78.13,1.11.46.29.29.42.65.42,1.07-.07,1.01-.59,1.53-1.63,1.56ZM107.61,259.11c-.49.2-.85.03-1.04-.46l-.13-.33c0-.1-.03-.2-.03-.29,0-.59.36-.88,1.01-.88.42,0,.68.23.75.72l.03.2c.1.52-.1.88-.59,1.04ZM113.34,266.3s-.49-.1-1.33-.33c-.1,0-.16,0-.23.1-.07.07-.07.16-.07.26l.07,1.63c.03.33-.07.59-.29.85-.23.23-.49.36-.81.36-.29,0-.59-.1-.81-.33-.19-.23-.33-.49-.33-.81l.03-1.82c0-.1-.03-.16-.13-.23-.07-.03-.29.07-.65.29-.55.36-1.01.52-1.34.49-.32-.07-.49-.23-.49-.59,0-.23.23-.59.65-1.07.78-.95,1.27-1.63,1.43-2.08.03-.26-.03-.36-.29-.36h-.59c-.33,0-.62-.13-.88-.36-.23-.26-.36-.55-.36-.88,0-.36.13-.65.36-.91.26-.23.55-.36.88-.36h.91c.32,0,.45-.16.42-.46l-.1-1.82c-.03-.81.36-1.24,1.21-1.3.36,0,.68.1.91.33s.32.52.32.88l-.03,2.02c0,.1.07.19.13.26.07.07.16.1.26.1h.65c.81,0,1.24.39,1.24,1.2,0,.33-.13.62-.39.85-.26.23-.55.36-.88.36h-.72c-.26,0-.39.1-.39.36-.06.49.59,1.14,1.92,1.92.33.2.49.46.55.75.06.49-.23.72-.85.72ZM113.4,259.24c-.36,0-.55-.2-.55-.55,0-.13.03-.33.16-.62.16-.46.46-.68.88-.68.52,0,.78.26.78.81,0,.29-.1.49-.29.65-.42.26-.75.39-.97.39ZM128.24,263.66c-.39.39-.88.62-1.43.65l-.78.03c-.36,0-.55.2-.55.52.07,2.05.16,5.14.33,9.27.03.55-.13.97-.49,1.33-.33.36-.75.55-1.3.59-.49.03-.95-.16-1.3-.52s-.55-.78-.52-1.3l.2-8.62c0-.36-.13-.65-.39-.88-.23-.23-.52-.33-.85-.33-.88.03-1.37.42-1.43,1.2-.26,2.08-.72,4-1.34,5.69-.49,1.3-1.11,1.95-1.85,1.95s-1.04-.46-1.04-1.33c0-.29,0-.59.07-.81.62-3.55.91-6.31.91-8.27v-2.44c0-2.18.23-3.61.72-4.26.42-.59,1.4-1.2,2.99-1.85,1.14-.46,2.12-.91,2.99-1.33.39-.2.78-.29,1.21-.29.59,0,1.07.2,1.46.55.39.36.59.81.59,1.4,0,.88-.42,1.5-1.23,1.79-1.21.36-2.8.91-4.85,1.66-.42.26-.65.62-.65,1.1,0,.39.13.68.36.91.26.2.59.29,1.01.29l5.89-.1c.55-.03,1.01.16,1.37.55.39.39.59.85.55,1.37-.03.55-.23,1.04-.62,1.46Z"/>
      <path class="cls-1" d="M144.13,268.64c0,3.03-1.46,4.62-4.46,4.72-1.43.07-2.54-.29-3.35-1.07s-1.24-1.89-1.27-3.32l-.26-9.04c-.03-1.21.39-2.31,1.3-3.32l2.44-2.02c.62-.52,1.2-.78,1.79-.78.46,0,.88.16,1.24.49.36.36.55.75.55,1.21,0,.59-.29,1.04-.85,1.36-.07.07-.98.52-2.67,1.4-.1.03-.13.13-.13.23,0,.13.07.16.16.16l1.5-.07c1.5-.06,2.54.2,3.12.85.59.62.88,1.69.88,3.22v5.98ZM140.33,262.1l-.75-.03c-.36,0-.65.1-.88.33-.26.26-.39.55-.39.88.03.36.16.68.42.91.26.26.55.36.91.33.13,0,.39,0,.72-.03.72-.06,1.07-.46,1.07-1.23,0-.72-.36-1.11-1.11-1.14ZM140.82,268.32c-.26-.26-.55-.36-.91-.32l-.39.06c-.75.1-1.1.52-1.1,1.27.06.78.46,1.17,1.17,1.17h.2c.85,0,1.3-.46,1.36-1.33.03-.33-.1-.62-.32-.85ZM155.94,276.13c-.46,0-1.01-.29-1.66-.91-.26-.23-.65-.62-1.2-1.17-.33-.29-.49-.52-.49-.62.03-.1.26-.13.65-.16.23.03.42.03.65,0h.62c.33,0,.55-.13.72-.36.03-.13.13-.46.26-.91.72-2.8,1.11-5.82,1.21-9.04.03-1.4-.59-2.11-1.85-2.21-.81-.03-2.25-.13-4.29-.33-.59-.06-1.08.07-1.4.39-.29.39-.62.78-.95,1.17-.39.36-.85.55-1.36.55-.75,0-1.14-.49-1.14-1.46,0-.39.06-.85.23-1.37.75-2.57,1.2-4.33,1.37-5.24.23-1.47,1.04-2.12,2.47-1.95.49.06.88.29,1.2.62.33.36.49.78.49,1.3,0,.36-.16,1.04-.46,2.05-.13.42.23.68,1.07.78.62,0,1.17.03,1.76.06,1.98.13,3.38.55,4.23,1.24.94.81,1.43,2.15,1.43,4.07,0,4.69-.59,8.69-1.76,12.01-.33.97-.94,1.47-1.79,1.5ZM151.19,268.71c-.29.33-.68.49-1.1.49-.68,0-1.17-.33-1.5-.97-.42-.91-.65-1.47-.65-1.66,0-.94.52-1.4,1.5-1.4.65,0,1.14.23,1.47.68.49.68.75,1.27.75,1.72s-.16.85-.46,1.14Z"/>
      <path class="cls-1" d="M175,271.21c-.65.55-1.56,1.24-2.67,2.05-.46.33-.94.42-1.46.33-.88-.16-1.37-.97-1.47-2.41-.13-2.05-.16-6.41-.1-13.05,0-.55.2-1.04.62-1.43.39-.39.88-.59,1.47-.59.55,0,1.04.2,1.4.62.36.39.52.88.49,1.47-.19,3.71-.26,7.61-.19,11.71,0,.33.16.46.49.46h.2c.13-.03.26-.03.39-.03h.55c.29,0,.46.1.55.33.06.19-.03.39-.26.55ZM185.63,263.21c-.19-.03-.33-.26-.33-.72v-.62c0-.42-.19-.65-.55-.65-1.11-.03-2.38,0-3.78.13-.59.03-1.07-.13-1.47-.49-.42-.39-.62-.85-.62-1.43.03-1.21.68-1.85,2.02-1.92,1.89-.13,3.58-.13,5.01,0,1.46.1,2.21.72,2.21,1.82,0,.59-.49,1.63-1.53,3.09-.39.59-.72.85-.98.78ZM187.62,272.38c-.39.39-.88.62-1.46.72s-1.14.13-1.66.13c-1.43,0-2.76-.33-3.97-.97-.78-.42-1.14-1.04-1.14-1.86,0-.45.13-.85.46-1.17.29-.29.68-.46,1.17-.46.36,0,.75.07,1.17.16,1.08.29,2.25.29,3.52.06.13-.03.26-.03.46-.03.59,0,1.07.2,1.46.55.36.36.55.81.55,1.43,0,.55-.19,1.04-.55,1.43Z"/>
      <path class="cls-1" d="M209.8,274.6c-.1.85-.55,1.23-1.37,1.17-.33-.03-.62-.16-.94-.42l-1.3-1.14c-.16-.13-.19-.29-.13-.39.03-.1.16-.13.36-.13h.75c.2,0,.29-.1.29-.29l-.03-1.33c-.03-.46-.13-.75-.29-.88-.16-.1-.55-.13-1.08-.13h-3.77c-.36-.03-.55.13-.59.52l-.26,2.18c-.03.39-.23.75-.52,1.01-.29.29-.65.46-1.04.46s-.75-.16-1.07-.46c-.33-.29-.46-.65-.46-1.01l.32-9.6c.03-1.4.39-2.37,1.01-2.96.65-.55,1.66-.81,3.06-.81.52,0,.97-.29,1.4-.91.03-.03.29-.59.81-1.63.06-.16.1-.29.1-.42,0-.36-.59-.62-1.76-.85-.42-.07-.72.06-.91.39-.59.98-.91,1.53-1.01,1.66-.52.62-1.04.94-1.56.94-.49,0-.81-.16-.94-.55-.1-.29-.06-.68.1-1.17.29-.78.59-1.56.88-2.34.42-1.08.85-1.76,1.23-2.05.42-.29,1.04-.42,1.89-.33,3.64.36,5.5,1.3,5.5,2.86,0,.65-.33,1.47-.97,2.44-.16.33-.42.75-.75,1.34-.1.1-.1.16-.03.29.06.13.16.2.29.2,2.02,0,3.06.97,3.09,2.9.07,4.85-.03,8.69-.29,11.45ZM202.96,267.14l-1.04-.03c-.49,0-.75.23-.78.75-.03.52.2.75.68.75.52.03.88.03,1.1-.03.42-.07.65-.26.65-.65.03-.49-.2-.75-.62-.78ZM202.74,263.66h-.68c-.52,0-.81.26-.85.78,0,.23.1.42.23.59.16.13.36.23.59.2h.65c.49-.03.75-.29.75-.81.03-.49-.2-.75-.68-.75ZM207.22,267.24l-.85-.03c-.46,0-.72.2-.72.65-.03.45.2.68.62.68l.98.07c.46.03.68-.2.68-.65s-.23-.68-.72-.72ZM207.26,263.63h-.65c-.49,0-.75.23-.81.72-.07.36.13.59.49.68.13.03.49.03,1.04.03.2.03.39-.03.52-.16.16-.16.23-.33.19-.52-.03-.49-.29-.75-.78-.75ZM223.39,272.64c-.33.29-.72.46-1.14.46h-1.72c-.42,0-.62.19-.62.62l.03,1.24c.03.49-.13.91-.49,1.24-.36.36-.75.55-1.24.55-.49.03-.91-.13-1.27-.46-.36-.32-.52-.72-.52-1.2v-1.63c0-.46-.23-.65-.68-.65l-2.67.1c-.36.03-.65-.1-.91-.36-.29-.23-.42-.55-.42-.91,0-.39.13-.68.39-.94s.59-.39.94-.39l2.57-.03c.55,0,.81-.26.81-.81v-.59c0-.68-.36-1.04-1.01-1.04h-.68c-.23,0-.46.13-.68.39-.13.13-.23.26-.36.32-.36.33-.72.36-1.08.13-.49-.26-.62-.81-.39-1.63.16-.55.29-1.46.49-2.67.13-.97.59-1.43,1.43-1.36.94.03,1.4.46,1.33,1.33-.06.13-.1.36-.16.68-.07.23,0,.33.19.33h.62c.29,0,.46-.13.46-.42v-1.37c0-.46.13-.81.46-1.1.29-.29.68-.46,1.14-.46.42,0,.81.13,1.11.42.33.26.46.62.46,1.07v1.2c0,.29.16.46.42.42l1.85-.1c.42-.03.78.13,1.07.42.33.33.49.68.49,1.1s-.16.78-.49,1.08c-.33.26-.72.39-1.14.39-.55-.03-1.07-.03-1.59-.03-.42,0-.62.16-.59.52v1.01c0,.36.26.55.75.52.39,0,.97,0,1.72-.03.42,0,.78.16,1.1.46.33.26.46.62.46,1.04,0,.46-.13.81-.46,1.14ZM223.52,260.41c0,.39-.13.75-.36,1.04-.23.29-.55.42-.91.39-.36,0-1.14-.52-2.31-1.5-.19-.23-.29-.36-.29-.39.03-.1.13-.16.33-.16h.19c.13-.03.26-.03.36-.03h.49c.19,0,.29-.1.29-.26v-1.92c0-.85-.42-1.27-1.27-1.27h-.75c-.49,0-.94.39-1.37,1.17-1.63,2.8-2.96,4.2-4.07,4.2-.55,0-.85-.33-.85-1.01,0-.26.1-.55.29-.88,1.07-1.72,1.69-2.9,1.85-3.55.07-.26-.03-.42-.36-.42l-.78-.03c-1.04-.03-1.56-.55-1.59-1.5-.03-.42.1-.78.39-1.07.29-.29.65-.46,1.07-.46l4.42-.03c1.79-.03,3.06.23,3.81.72.98.59,1.43,1.76,1.43,3.41,0,.72-.03,1.89-.03,3.55Z"/>
      <path class="cls-1" d="M231.45,266.2l-.49-.26c-.55-.26-.85-.72-.85-1.4,0-.42.16-.81.49-1.11.36-.29.72-.42,1.17-.42.49,0,.94.16,1.37.52.39.33.62.75.62,1.24,0,1.07-.52,1.63-1.56,1.63-.23,0-.49-.07-.75-.2ZM235.42,258.07c0,.46-.16.85-.49,1.2-.36.36-.75.52-1.17.52-.46,0-.81-.2-1.14-.59-.59-.78-.91-1.34-.91-1.69,0-.49.16-.85.49-1.17.33-.29.75-.42,1.21-.42.52,0,.91.16,1.24.52l.29.33c.33.39.49.81.49,1.3ZM235.26,273.78c-.49.81-1.11,1.23-1.82,1.23-.46,0-.85-.16-1.17-.49-.33-.36-.49-.75-.49-1.2,0-.42.16-.81.46-1.17.13-.16.46-.49.91-.95.91-.85,1.56-1.27,1.95-1.27.78,0,1.17.39,1.17,1.17,0,.13-.03.29-.1.46-.42,1.1-.72,1.85-.91,2.21ZM255.1,266.33c-.36.39-.81.62-1.36.62-2.05,0-3.48,0-4.29-.03-.46-.03-.65.16-.65.52,0,.13.03.26.1.39,1.2,1.76,2.44,3.03,3.71,3.78.06.03.13.06.26.03.16-.03.42-.06.81-.2.26-.06.42-.06.52-.03-.13.26-.26.59-.36.98l.62.81c.16.26.23.62.2,1.07,0,.52-.23.97-.59,1.33-.39.36-.85.55-1.4.59-.88,0-1.63-.33-2.31-1.04-1.46-1.59-2.73-3.22-3.8-4.88-.13-.19-.26-.29-.42-.29-.26,0-.46.2-.65.52-1.33,2.31-2.64,3.78-3.9,4.39-.26.13-.55.2-.85.2-.75,0-1.14-.36-1.14-1.04,0-.42.26-1.04.75-1.76,1.5-2.28,2.24-3.81,2.24-4.56,0-.39-.52-.62-1.63-.65.2,0-.49.03-1.98.03-.52,0-.94-.16-1.24-.49-.32-.36-.49-.78-.46-1.27,0-.49.16-.91.49-1.24.32-.36.75-.52,1.23-.55.36-.03,1.4-.06,3.09-.1.72,0,1.07-.39,1.11-1.08v-1.63c-.03-.49-.29-.75-.81-.72l-1.76.1c-.55,0-1.04-.2-1.4-.62-.39-.46-.55-.95-.52-1.5.1-1.24.85-1.89,2.24-1.92l1.79-.07c.42-.03.62-.26.62-.72l-.1-1.72c-.03-.52.13-1.01.52-1.4.36-.39.81-.59,1.36-.59.59,0,1.04.2,1.4.55.36.36.52.85.52,1.4l-.07,1.69c-.03.46.2.68.62.68h1.23c2.38,0,3.52,1.2,3.42,3.64l-.13,3.09c0,.16.06.29.16.39.13.13.26.16.46.13l.85-.1c.55-.06,1.01.1,1.4.46.39.33.62.78.62,1.34.03.55-.13,1.04-.52,1.43ZM248.79,260.31c-.23-.23-.49-.36-.78-.36-.75-.03-1.14.33-1.17,1.04,0,.2,0,.55-.03,1.11,0,.33.1.59.33.81.23.19.49.29.81.26.75-.03,1.14-.42,1.14-1.14l.03-.97c0-.29-.1-.55-.33-.75Z"/>
      <path class="cls-1" d="M283.62,260.74c-.42.36-.91.52-1.46.52-1.47-.1-2.93-.1-4.33-.06-.72.03-1.07.39-1.1,1.14,0,.52.23,1.3.65,2.34.46,1.14.72,2.11.78,2.93.07.59.03,1.34-.07,2.18-.16,2.02-.81,3.81-1.85,5.43-.55.88-1.07,1.3-1.59,1.3-.49,0-.72-.32-.72-.94,0-.26.07-.75.26-1.4.29-.94.46-1.43.46-1.43.03-.29-.1-.49-.33-.55-.13-.07-.39-.07-.78-.07-2.73.03-4.26-1.27-4.55-3.94,0-.23-.03-.42-.03-.62,0-2.28,1.27-3.64,3.78-4.07.46-.07.68-.46.68-1.07s-.26-.91-.78-.91c-1.72.03-3.64.16-5.69.39-.62.07-1.14-.1-1.59-.52-.46-.42-.68-.95-.75-1.56-.03-.62.19-1.11.65-1.5.39-.36.91-.55,1.56-.62,1.95-.13,3.87-.23,5.73-.29.42-.03.65-.26.62-.72l-.13-1.95c-.03-.68.16-1.23.62-1.66.42-.42,1.01-.62,1.69-.62.65.03,1.23.29,1.69.78.49.49.68,1.08.68,1.72l-.03,1.92c0,.42.23.65.65.65.91,0,2.28-.03,4.07-.1.55-.03.97.16,1.36.55.36.42.55.88.52,1.4-.03.52-.23.98-.65,1.34ZM273.4,266.59c-.39-.03-.75.06-.98.36-.26.26-.39.59-.36,1.01.03.75.36,1.17,1.01,1.27.81.13,1.24-.32,1.3-1.3.03-.85-.29-1.27-.97-1.33Z"/>
      <path class="cls-1" d="M311.2,273.26c-1.34,1.17-3.03,1.76-5.11,1.76-1.53,0-2.8-.29-3.74-.91-1.17-.68-1.76-1.76-1.79-3.19,0-.97.33-1.72,1.04-2.31.62-.49,1.4-.75,2.41-.75.72,0,1.36.19,1.98.62.59.42,1.01.97,1.24,1.66.13.36.32.55.59.55.13,0,.26-.07.39-.16.75-.52,1.14-1.21,1.17-2.12.03-1.72-1.07-2.99-3.38-3.81-1.21-.42-1.85-1.01-1.98-1.76-.1-.59.03-1.17.39-1.79l.91-1.59c.03-.07.06-.13.06-.26,0-.33-.16-.49-.49-.46-.46.06-1.3.13-2.54.23-.62.06-1.2-.16-1.66-.62-.49-.46-.72-1.01-.75-1.66-.03-.68.19-1.24.62-1.72.46-.49,1.01-.72,1.69-.72.55,0,1.33-.03,2.31-.07,1.11-.06,1.86-.1,2.31-.1,2.25-.03,3.35.78,3.35,2.47,0,.78-.26,1.53-.75,2.31-.29.42-.81,1.2-1.53,2.28-.13.19-.2.36-.2.49,0,.26.26.49.81.65,1.4.46,2.54,1.24,3.38,2.28.81,1.07,1.24,2.34,1.24,3.81,0,2.05-.65,3.68-1.98,4.88ZM304.07,270.3c-.49,0-.75.23-.75.72,0,.62.26.94.81.94.62.03.91-.2.94-.65.03-.65-.29-1.01-1.01-1.01Z"/>
      <path class="cls-3" d="M90.91,313.4c-.52.52-1.14.81-1.89.85-.68,0-1.3-.23-1.82-.72-.52-.52-.75-1.11-.75-1.82l.29-14.97c0-.62.23-1.17.68-1.63.46-.45,1.01-.68,1.63-.68.68.03,1.23.26,1.72.75.46.49.72,1.04.72,1.69.06,7.03.1,11.91.16,14.67,0,.72-.23,1.34-.75,1.86Z"/>
      <path class="cls-3" d="M112.43,298.37c-.46.46-.98.68-1.63.68h-2.9c-.68,0-1.01.33-.98,1.01l.33,11.42c0,.72-.23,1.33-.72,1.85-.49.52-1.07.81-1.82.88-.68.03-1.27-.2-1.76-.65-.49-.49-.72-1.07-.72-1.79.2-5.89.29-9.66.33-11.35,0-.68-.33-1.04-1.01-1.07l-3.03-.2c-.62-.06-1.17-.29-1.59-.75-.42-.42-.62-.98-.62-1.63s.23-1.17.65-1.59c.46-.46.98-.68,1.63-.68l12.59-.03c.62,0,1.11.23,1.5.68.39.42.59.97.52,1.56-.07.65-.33,1.21-.78,1.66Z"/>
      <path class="cls-3" d="M121.87,311.97c0-.39.49-1.1,1.53-2.15.42-.49.91-.72,1.46-.72.39,0,.72.16,1.01.46.26.29.42.65.42,1.04,0,.65-.49,1.24-1.4,1.69-.78.39-1.56.62-2.28.62-.49,0-.75-.33-.75-.94ZM139.77,304.19c0,1.24-.85,1.92-2.54,2.02-1.92.16-6.15.23-12.69.16-.49,0-.88-.16-1.21-.49-.33-.36-.49-.75-.49-1.24s.16-.91.52-1.21c.36-.32.78-.49,1.27-.49h1.79c.49,0,.91-.16,1.3-.46l.59-.49c.29-.26.23-.52-.13-.81-.26-.16-.59-.42-1.04-.75-.65-.49-1.04-1.04-1.2-1.59-.16-.52-.03-1.17.42-1.98.36-.52.62-.98.81-1.37.1-.16.1-.29.03-.39-.1-.13-.23-.19-.42-.13-.36.03-1.01.07-1.92.13-.39,0-.72-.1-1.01-.36-.29-.23-.42-.55-.39-.91.03-.75.52-1.17,1.43-1.33,2.6-.49,5.6-1.2,8.95-2.15.39-.1.75-.16,1.14-.16.85,0,1.46.36,1.89,1.04.13.26.23.52.23.81,0,.94-.42,1.5-1.24,1.69-.68.13-1.69.39-3.03.72-1.3.36-2.18.81-2.54,1.43-.19.29-.49.75-.91,1.34-.1.16-.16.33-.16.55,0,.26.16.52.46.72l.46.33c.39.19.75.13,1.07-.2l.98-1.04c.49-.49,1.04-.75,1.69-.75.55,0,1.01.16,1.4.49.39.36.59.78.59,1.33,0,.52-.16.94-.52,1.27-.85.78-1.69,1.5-2.54,2.21-.1.1-.13.2-.13.33,0,.26.13.39.39.39,1.4.03,2.51-.03,3.32-.13.2-.03.26-.13.16-.36l-.23-.59c-.06-.16-.1-.33-.1-.49,0-.81.45-1.21,1.3-1.21.55,0,1.01.36,1.33,1.04.07.07.26.65.68,1.79.13.39.23.81.23,1.27ZM132.93,314.8c0,.46-.2.88-.52,1.2-.33.33-.75.49-1.21.49-.49,0-.88-.16-1.2-.49s-.49-.75-.49-1.24l-.07-5.98c0-.49.16-.91.49-1.27s.75-.52,1.24-.52.91.16,1.24.52c.32.32.52.75.52,1.23v6.05ZM140.74,311.91c0,.59-.52.91-1.53.91-.85,0-1.66-.29-2.44-.81-.42-.26-.65-.65-.65-1.14,0-.39.13-.72.42-.98.26-.26.59-.39.94-.39.55,0,1.43.42,2.57,1.3.46.33.68.72.68,1.11Z"/>
      <path class="cls-3" d="M171.73,309.11c-.68,1.37-1.59,2.38-2.73,3.03-.49.29-.88.42-1.21.42-.42,0-.62-.2-.62-.62,0-.13.2-.59.59-1.34.88-1.76,1.33-3.58,1.33-5.47s-.59-3.09-1.76-3.81c-.42-.26-.78-.36-1.07-.29-.36.06-.68.39-.97,1.01-1.72,3.52-3.55,6.05-5.5,7.55-.78.62-1.69.94-2.67.94-1.34,0-2.34-.65-2.99-1.92-.59-1.14-.85-2.41-.78-3.84.13-2.77,1.17-4.95,3.09-6.54,1.82-1.49,4.16-2.21,7.03-2.18,2.77.03,4.98.88,6.67,2.5,1.69,1.59,2.54,3.81,2.54,6.54,0,1.4-.32,2.73-.94,4ZM162.01,300.71c0-.46-.42-.68-1.2-.59-1.11.1-1.98.55-2.73,1.37-.72.81-1.14,1.76-1.2,2.86-.13,1.4.19,2.15.97,2.15.36.03.72-.16,1.07-.55.75-.85,1.72-2.34,2.86-4.49.13-.29.23-.52.23-.75Z"/>
      <path class="cls-3" d="M188.18,300.19c-.39.46-.55.98-.55,1.5l.46,9.4c.03.45-.13.85-.42,1.17-.33.36-.68.55-1.14.55-.42,0-.81-.16-1.14-.49-.36-.33-.49-.72-.49-1.14l.26-8.1c0-.39-.03-.62-.13-.68-.13-.13-.59-.03-1.4.29-.36.16-.65.23-.88.23-.33,0-.55-.13-.68-.39-.16-.39-.03-.85.42-1.34,1.69-1.76,3.19-3.61,4.52-5.6.39-.55.91-.81,1.59-.81.49,0,.91.16,1.27.52.33.33.49.75.49,1.27,0,.36-.1.72-.29,1.11-.36.55-.97,1.4-1.89,2.5ZM195.47,307.48h-1.1c-1.95-.13-2.96-1.33-2.96-3.54,0-.98.26-1.76.78-2.41.52-.62,1.27-.91,2.21-.91h.98c.91,0,1.66.33,2.24.94.59.65.85,1.47.85,2.41,0,2.21-1.01,3.38-2.99,3.51ZM207.12,296.81c-.49.46-1.07.68-1.76.72-.29,0-.46.16-.46.49,0,.91,0,2.99-.07,6.22-.1,4.36-.13,7.29-.13,8.78,0,.59-.16,1.07-.46,1.47-.32.49-.75.72-1.3.72-.59,0-1.2-.33-1.92-.91-.2-.2-.72-.72-1.53-1.56-.26-.29-.46-.52-.62-.68.03-.13.2-.23.46-.23h1.5c.33,0,.49-.16.49-.46.1-3.78.13-7.97.16-12.66,0-.42-.13-.78-.42-1.07-.29-.29-.65-.42-1.08-.42h-4.49c-.59,0-1.07-.19-1.47-.59-.42-.42-.62-.91-.62-1.46,0-.62.2-1.11.62-1.5.39-.42.88-.62,1.5-.65l10.15-.2c.65,0,1.17.2,1.59.65.45.46.65,1.01.59,1.66-.03.65-.29,1.24-.75,1.69ZM195.31,303.41h-.55c-.52,0-.78.29-.78.91,0,.55.26.88.85.94h.52c.59-.03.85-.33.81-.91-.03-.65-.33-.94-.85-.94Z"/>
      <path class="cls-3" d="M232.48,299.41c-1.27.45-2.34,1.14-3.26,2.08-1.01,1.04-1.59,2.18-1.72,3.38-.13,1.4.42,2.9,1.66,4.49.36.42.52.91.52,1.46,0,.94-.42,1.59-1.23,1.98-.39.16-.78.23-1.17.23-1.11,0-1.99-.55-2.57-1.63-.97-1.76-1.46-3.51-1.46-5.27,0-.49.03-.91.1-1.27.26-1.5,1.2-2.96,2.8-4.36.16-.13.23-.29.23-.46,0-.29-.16-.42-.49-.42-1.27.13-3.54.29-6.8.55-.59.03-1.11-.16-1.56-.59-.46-.42-.68-.91-.72-1.5,0-.65.2-1.17.59-1.53.39-.39.94-.59,1.59-.62,1.66-.03,6.18-.26,13.53-.65.52,0,.97.16,1.37.55.39.39.62.85.62,1.37.03.97-.65,1.69-2.02,2.18ZM233.72,304c-.52.1-.88-.16-1.07-.75l-.2-.65c-.03-.13-.03-.29-.03-.42,0-.62.26-.97.81-1.04.36-.03.68.03.94.26.23.23.36.49.36.85v.42c0,.81-.26,1.23-.81,1.33ZM237,303.58c-.62.1-.98-.16-1.14-.78l-.16-.65c-.03-.16-.06-.29-.06-.39,0-.59.29-.94.88-1.04.85-.1,1.27.29,1.27,1.14v.36c0,.85-.26,1.3-.78,1.37Z"/>
      <path class="cls-3" d="M266.17,311.16c-.91,2.51-2.73,3.74-5.53,3.74-2.15,0-3.71-.81-4.72-2.44-.88-1.33-1.33-3.16-1.36-5.4,0-.42-.16-.62-.55-.62h-.78c-.59,0-1.04-.19-1.43-.62-.39-.39-.62-.91-.62-1.5-.03-.55.13-1.04.52-1.43.39-.39.88-.59,1.43-.62l1.17-.06c.39,0,.59-.23.65-.62l.1-.94c.03-.42-.23-.68-.78-.81-.42-.03-.85-.1-1.3-.16-.46-.07-.85-.29-1.11-.68-.29-.36-.42-.78-.39-1.27.06-.49.26-.85.59-1.17.33-.29.75-.46,1.2-.42l1.24.03c.39,0,.62-.19.68-.62.03-.39.1-1.1.16-2.11.07-.65.39-1.14.98-1.53.59-.39,1.2-.52,1.82-.42.55.1.97.36,1.33.78.36.42.52.88.52,1.43,0,.13,0,.29-.03.46l-.39,1.76c-.03.16,0,.33.1.42.1.13.23.2.39.2.36,0,.91-.03,1.63-.03.46,0,.88.16,1.21.49.32.33.52.72.52,1.17,0,.49-.16.91-.52,1.27-.33.36-.72.52-1.21.55l-2.28.1c-.55.03-.88.26-.91.68l-.03.46c0,.23.07.42.23.55.13.13.33.23.59.23l2.64-.03c.49,0,.88.16,1.24.49.36.36.52.75.52,1.23s-.16.95-.46,1.37c-.32.42-.72.65-1.2.68-.55.07-1.5.16-2.77.33-.59.06-.88.39-.88.94.03,2.7.88,4.07,2.57,4.13,1.3.03,2.5-.26,3.61-.91.81-.49,1.3-.78,1.5-.85.06,0,.16.03.23.13.26.26.23.81-.1,1.66Z"/>
      <path class="cls-3" d="M298.76,296.32c-.65.65-1.5.97-2.47,1.01l-9.83.16c-.85.03-1.53.49-2.02,1.37-.36.81-.75,1.63-1.1,2.44-.46,1.01-1.08,1.5-1.79,1.5-.29,0-.55-.07-.78-.2-.36-.2-.52-.62-.52-1.33,0-.52.1-1.21.29-2.05.46-1.85.81-3.55,1.08-5.11.36-2.31,2.05-3.52,5.08-3.55.97-.03,4.16-.03,9.63-.03,2.24,0,3.41,1.1,3.41,3.35,0,.97-.32,1.79-.97,2.44ZM298.73,315.55c-.33.29-.68.42-1.11.42l-12.14.03c-.36,0-.65-.13-.91-.36-.23-.26-.33-.55-.29-.91,0-.36.16-.65.39-.91.26-.26.59-.39.94-.42.62-.03,1.82-.07,3.55-.13.42,0,.65-.23.68-.62,0-.42-.2-.62-.59-.62l-2.15-.03c-.36,0-.68-.13-.94-.39-.26-.23-.36-.55-.36-.91,0-.85.42-1.27,1.34-1.3l2.21-.03c.19,0,.29-.1.29-.29.03-1.14.59-1.72,1.66-1.76l.97-.03c.39-.03.75.13,1.04.42.29.33.46.68.46,1.11.03.06.1.13.23.2l2.15-.1c.36,0,.65.1.91.36.26.26.39.55.39.94,0,.36-.13.68-.42.94-.26.29-.59.42-.94.42l-1.76.03c-.36,0-.55.2-.55.59,0,.33.16.52.52.55l3.42.16c.42,0,.78.16,1.07.49.29.29.42.65.42,1.07-.03.42-.2.78-.49,1.07ZM298.86,301.23c-.26.29-.55.42-.91.42h-4.26c-.65,0-1.14.26-1.5.75-.59.78-.88,1.3-.88,1.56,0,.23.23.33.68.36.72.03,1.56,0,2.51-.1.16-.03.23-.1.2-.23-.03-.13-.07-.26-.07-.39,0-.72.29-1.11.91-1.24l.36-.06c.13,0,.26-.03.36-.03.68,0,1.14.39,1.3,1.17l.19.88c.07.16.1.36.1.52,0,.85-.46,1.33-1.33,1.46-1.69.26-3.78.33-6.25.23-1.4-.03-2.15-.62-2.28-1.76-.07-.46.06-1.01.42-1.66,0-.03.16-.29.46-.85.07-.03.07-.1.07-.16,0-.2-.13-.29-.36-.29.23,0-.29.03-1.56.1-.36,0-.68-.13-.97-.42-.26-.26-.39-.59-.39-.95,0-.39.13-.72.42-1.01s.62-.42,1.01-.42l10.9-.1c.36,0,.65.13.91.36s.39.55.39.91-.13.68-.42.94ZM296.03,293.62l-8.82-.06c-.42,0-.65.23-.68.65-.03.49.2.72.62.72,1.27,0,4.2,0,8.85-.07.36,0,.55-.23.59-.65,0-.39-.2-.59-.55-.59Z"/>
    </g>
  </g>
</svg>