<?xml version="1.0" encoding="UTF-8"?>
<svg id="_レイヤー_2" data-name="レイヤー 2" xmlns="http://www.w3.org/2000/svg" viewBox="0 0 157.36 71.11">
  <defs>
    <style>
      .cls-1 {
        fill: #eae43b;
      }

      .cls-2 {
        fill: #1c2b59;
      }

      .cls-3 {
        fill: #fff;
      }

      .cls-4 {
        fill: #d2231a;
      }

      .cls-5 {
        fill: #228fc7;
      }

      .cls-6 {
        fill: #221714;
      }

      .cls-7 {
        fill: #cf1f72;
      }
    </style>
  </defs>
  <g id="TEXT">
    <circle class="cls-5" cx="37.07" cy="35.73" r="35.38"/>
    <circle class="cls-7" cx="79.48" cy="35.73" r="35.38"/>
    <path class="cls-2" d="M44.1,35.73c0,11.58,5.57,21.87,14.17,28.32,8.61-6.45,14.17-16.74,14.17-28.32s-5.57-21.87-14.17-28.32c-8.61,6.45-14.17,16.74-14.17,28.32Z"/>
    <circle class="cls-1" cx="121.98" cy="35.38" r="35.38"/>
    <path class="cls-4" d="M86.59,35.21c0,12.45,5.48,22.16,14.38,28.64,8.45-6.47,13.9-16.83,13.9-28.29s-5.65-22.01-14.36-28.46c-8.45,6.47-13.92,16.65-13.92,28.11Z"/>
    <path class="cls-3" d="M56.79,60.62s0,0,0,0c-5.11-1.26-13.61-2.05-22.89-2.05-11.09,0-23.28,1.1-32.09,4.09l-1.81-5.59c9.44-3.15,22.18-4.4,33.82-4.4,8.65,0,16.68.71,22.26,1.81,3.62-5.51,8.6-11.56,15.83-12.9l2.12,5.46c-4.78,2.01-10.48,5.95-13.94,12.16,0,0,0,0,0,0l-3.3,1.42ZM61.49,10.06c0,3.94-.13,12.41-.13,12.41-2.83-.47-6.45-.71-10.38-.71-11.88,0-27.3,2.04-37.21,5.19,0,0-4.37-13.19-4.37-13.32,8.64-11.54,32.24-21.95,52.1-3.57ZM49.32,38.59c-1.26-.39-3.15-.55-5.27-.55-5.74,0-13.77,1.18-19.98,3.15l-1.18-3.78c6.14-1.89,14.63-3.3,21.16-3.3,2.52,0,4.72.24,6.37.71,0,0-1.1,3.78-1.1,3.78Z"/>
    <path class="cls-3" d="M107.47,47.48c-2.41,4.8-7.09,11.53-15.44,15.77-.57-1.41-1.11-2.97-1.55-4.66l-5.15,1.51c.55,1.91,1.22,3.65,1.91,5.16,0,0-.01,0-.02,0l1.9,4.54c13.33-3.39,19.74-13.43,22.5-19.32l-4.15-3Z"/>
    <path class="cls-3" d="M102.88,34.97l11.52-5.14c-2.51-16.34-15.56-25.04-21.17-26.72l-8.45,10.9c5.07,2.46,13.84,8.02,18.1,20.96Z"/>
    <path class="cls-3" d="M107.69,44.85c-5.02-.69-6.38-.96-10.07-1.03-2.05-.04-3.89.04-5.57.18l-.77-5.17c1.89-.31,4.09-.55,6.45-.55,4.17,0,8.57.63,11.64,2.04l-1.69,4.53Z"/>
    <path class="cls-6" d="M125.76,44.46c-1.48,5.79-8.42,16.19-8.58,16.35-1.46-2.35-2.19-4.42-2.19-4.42,2.61-3.18,6.02-9.18,7.15-13.7l3.61,1.77Z"/>
    <path class="cls-3" d="M126.4,25.82c-3.11.78-6.07,1.34-8.54,1.77l-1.41-8.69c3.67-.56,8.33-1.69,13.13-3.11-.85-3.67-2.33-8.26-4.17-12.21l6.35-2.97c1.62,3.46,3.46,8.33,4.52,12.99,4.73-1.69,9.25-3.6,12.78-5.58l4.31,7.63c-5.79,3.32-13.98,6.43-21.75,8.69l-5.22,1.48Z"/>
    <path class="cls-6" d="M131.54,24.36c-2.97,4.24-5.35,7.95-7.12,11.7,4.59-2.54,9.18-4.59,13.42-6-.78-.71-1.55-1.41-2.33-2.05l3.32-4.1c3.39,2.75,6.78,6.28,10.24,10.8l-4.17,3.25c-1.41-1.84-2.82-3.53-4.24-5.01-5.79,1.55-12.43,4.66-18.78,8.76l-2.61-1.98c1.48-5.01,7.26-13.95,7.28-13.95,2.74-.77,4.99-1.42,4.99-1.42Z"/>
    <path class="cls-3" d="M125.69,56.74v-.63c0-5.72,1.84-10.66,3.95-15.53l3.18,1.34c-1.91,4.59-3.6,9.11-3.6,14.19v.57l-3.53.07Z"/>
    <path class="cls-6" d="M154.5,64.16c-1.06-.14-2.19-.21-3.39-.21-4.8,0-10.03,1.13-14.47,3.11l-2.47-1.34c-.28-2.19-.64-5.93-.64-10.45,0-5.65.56-12.43,2.75-18.64l3.32,1.2c-1.69,4.87-2.61,11.16-2.61,17.86,0,2.4.28,4.87.49,7.27,4.38-1.55,9.18-2.4,13.7-2.4h.57c-1.48-3.11-2.19-6-2.19-8.61,0-2.05.42-3.88,1.27-5.58l3.18,1.55c-.64,1.27-.99,2.61-.99,4.1,0,2.75,1.13,5.86,3.25,9.53l-1.77,2.61Z"/>
  </g>
</svg>